<svg viewBox="0 0 24 24" fill="none" xmlns="http://www.w3.org/2000/svg">
  <path d="M12 2C6.48 2 2 6.48 2 12C2 17.52 6.48 22 12 22C17.52 22 22 17.52 22 12C22 6.48 17.52 2 12 2Z" stroke="url(#gradient)" stroke-width="1.75" stroke-linecap="round" stroke-linejoin="round"/>
  <path d="M8 12C8 13.1 8.9 14 10 14C11.1 14 12 13.1 12 12C12 10.9 11.1 10 10 10C8.9 10 8 10.9 8 12Z" stroke="url(#gradient)" stroke-width="1.75" stroke-linecap="round" stroke-linejoin="round"/>
  <path d="M12 12C12 13.1 12.9 14 14 14C15.1 14 16 13.1 16 12C16 10.9 15.1 10 14 10C12.9 10 12 10.9 12 12Z" stroke="url(#gradient)" stroke-width="1.75" stroke-linecap="round" stroke-linejoin="round"/>
  <path d="M8 16C9.5 17.5 10.5 18 12 18C13.5 18 14.5 17.5 16 16" stroke="url(#gradient)" stroke-width="1.75" stroke-linecap="round" stroke-linejoin="round"/>
  <defs>
    <linearGradient id="gradient" x1="2" y1="2" x2="22" y2="22" gradientUnits="userSpaceOnUse">
      <stop offset="0%" stop-color="#1c2cf5"/>
      <stop offset="100%" stop-color="#00c7ff"/>
    </linearGradient>
  </defs>
</svg>

